<!--?xml version="1.0" standalone="no"?-->
              <svg id="sw-js-blob-svg" viewBox="0 0 100 100" xmlns="http://www.w3.org/2000/svg" version="1.1">
                    <defs> 
                        <linearGradient id="sw-gradient" x1="0" x2="1" y1="1" y2="0">
                            <stop id="stop1" stop-color="rgba(79, 1, 71, 1)" offset="0%"></stop>
                            <stop id="stop2" stop-color="rgba(165.138, 0, 148.201, 1)" offset="100%"></stop>
                        </linearGradient>
                    </defs>
                <path fill="url(#sw-gradient)" d="M18.3,-33.6C23.5,-28.6,27.4,-23.3,29.6,-17.7C31.8,-12,32.3,-6,32.6,0.2C32.9,6.4,33,12.7,31.2,19.2C29.5,25.6,25.9,32.1,20.4,34.9C14.9,37.7,7.4,36.8,0.1,36.6C-7.2,36.4,-14.4,36.9,-20,34.2C-25.6,31.5,-29.6,25.4,-31.3,19.2C-32.9,12.9,-32.2,6.5,-32.3,0C-32.3,-6.5,-33.2,-13.1,-32,-20.1C-30.8,-27.1,-27.6,-34.7,-21.9,-39.4C-16.3,-44.2,-8.1,-46.2,-0.8,-44.8C6.5,-43.4,13,-38.6,18.3,-33.6Z" width="100%" height="100%" transform="translate(50 50)" stroke-width="0" style="transition: all 0.3s ease 0s;" stroke="url(#sw-gradient)"></path>
              </svg>