<svg xmlns="http://www.w3.org/2000/svg" viewBox="0 0 1440 1100">
    <defs>
      <clipPath id="clipWave2">
    <path  fill="#4F0147" fill-opacity="1" d="M0,256L60,234.7C120,213,240,171,360,144C480,117,600,107,720,133.3C840,160,960,224,1080,234.7C1200,245,1320,203,1380,181.3L1440,160L1440,320L1380,320C1320,320,1200,320,1080,320C960,320,840,320,720,320C600,320,480,320,360,320C240,320,120,320,60,320L0,320Z"></path>
    <path transform="translate(0, 310)" fill="#4F0147" fill-opacity="1" d="M0,160L60,138.7C120,117,240,75,360,48C480,21,600,11,720,48C840,85,960,171,1080,213.3C1200,256,1320,256,1380,256L1440,256L1440,0L1380,0C1320,0,1200,0,1080,0C960,0,840,0,720,0C600,0,480,0,360,0C240,0,120,0,60,0L0,0Z"></path>
      </clipPath>
    </defs>
</svg>
  