<svg xmlns="http://www.w3.org/2000/svg" viewBox="0 0 1440 1100">
    <defs>
      <clipPath id="clipWave">
        <path d="M0,128L60,149.3C120,171,240,213,360,213.3C480,213,600,171,720,133.3C840,96,960,64,1080,90.7C1200,117,1320,203,1380,245.3L1440,288L1440,0L1380,0C1320,0,1200,0,1080,0C960,0,840,0,720,0C600,0,480,0,360,0C240,0,120,0,60,0L0,0Z"></path>
      </clipPath>
    </defs>
    <!-- This path is for display -->
    <path fill="#35012C" fill-opacity="1" d="M0,128L60,149.3C120,171,240,213,360,213.3C480,213,600,171,720,133.3C840,96,960,64,1080,90.7C1200,117,1320,203,1380,245.3L1440,288L1440,0L1380,0C1320,0,1200,0,1080,0C960,0,840,0,720,0C600,0,480,0,360,0C240,0,120,0,60,0L0,0Z"></path>
  </svg>